# xmcd
#
# Track frame offsets:
#	150
#	18854
#	38659
#	56364
#	78500
#	96913
#	115956
#	132422
#	150643
#	167481
#	187439
#	209404
#	226272
#	242906
#	262867
#	283338
#
# Disc length: 4007 seconds
#
# Revision: 1
# Processed by: cddbd v1.5.2PL0 Copyright (c) Steve Scherf et al.
# Submitted via: audiograbber 1.83.01
#
DISCID=dc0fa510
DTITLE=Various Artist - Chartbusters 5135-03
DYEAR=2009
DGENRE=Country
TTITLE0=Shinedown - Sound Of Madness
TTITLE1=Carey, Mariah - Obsessed
TTITLE2=Boys Like Girls - Love Drunk
TTITLE3=Jay-Z and Rhiana and Kanye West - Run This Town
TTITLE4=Pink - Please Don"t Leave Me
TTITLE5=The Script - The Man Who Can't Be Moved
TTITLE6=Houston, Whitney - Million Dollar Bill
TTITLE7=Buckcherry - Don't Go Away
TTITLE8=Hudson, Jennifer and Ludicris - Pocketbook
TTITLE9=The Fray - Never Say Never
TTITLE10=Clarkson, Kelly - Already Gone
TTITLE11=Jay Sean and Lil Wayne - Down
TTITLE12=Lady GaGa - Paparazzi
TTITLE13=The Dream  and Kanye West - Walking On The Moon
TTITLE14=DeAnda, Paula - Roll The Credits
TTITLE15=Songz, Trey - I Need A Girl
EXTD=ESP504-06
EXTT0=
EXTT1=
EXTT2=
EXTT3=
EXTT4=
EXTT5=
EXTT6=
EXTT7=
EXTT8=
EXTT9=
EXTT10=
EXTT11=
EXTT12=
EXTT13=
EXTT14=
EXTT15=
PLAYORDER=
